# xmcd
#
# Track frame offsets:
#	150
#	15207
#	30382
#	47218
#	65669
#	84449
#	100946
#	119151
#	131731
#	149528
#	167135
#	183809
#	201724
#	217009
#	231084
#	248214
#	264026
#	278612
#	294567
#	311854
#	327462
#	341972
#
# Disc length: 4752 seconds
#
# Revision: 0
# Processed by: cddbd v1.5.2PL0 Copyright (c) Steve Scherf et al.
# Submitted via: EasyCDDAExtractor 12.0.0.1
#
DISCID=57128e16
DTITLE=Various Artist - Hit Country 2009
DYEAR=2009
DGENRE=Country
TTITLE0=Jasmine Rae - Country Singer
TTITLE1=Taylor Swift - Our Song
TTITLE2=Adam Brand - Blame It On Eve
TTITLE3=Chasing Bailey - Little By Little
TTITLE4=Keith Urban - Once In A Lifetime
TTITLE5=Doc Walker - Beautiful Life
TTITLE6=Jewel - Stronger Woman
TTITLE7=Catherine Britt - Lucky Girl
TTITLE8=Steve Forde - Dust
TTITLE9=Emerson Drive - Moments
TTITLE10=Kasey Chambers and Shane Nicholson - Rattlin' Bones
TTITLE11=The McClymonts - Finally Over Blue
TTITLE12=Sinead Burgess - You Get Me
TTITLE13=Miranda Lambert - Crazy Ex-Girlfriend
TTITLE14=Gary Allan - Wrecking Ball
TTITLE15=Sara Evans - As If
TTITLE16=Adam Gregory - Crazy Days
TTITLE17=Sugarland - All I Want To Do
TTITLE18=Lady Antebellum - Love Don't Live Here
TTITLE19=Travis Collins - Rip It Up
TTITLE20=Julianne Hough - That Song In My Head
TTITLE21=Amanda Wilkinson - No More Me And You
EXTD=
EXTT0=
EXTT1=
EXTT2=
EXTT3=
EXTT4=
EXTT5=
EXTT6=
EXTT7=
EXTT8=
EXTT9=
EXTT10=
EXTT11=
EXTT12=
EXTT13=
EXTT14=
EXTT15=
EXTT16=
EXTT17=
EXTT18=
EXTT19=
EXTT20=
EXTT21=
PLAYORDER=
